mtllib material.mtl
usemtl material_0
v 23.00000000 195.07500000 34.60000000
v 23.00000000 195.07500000 34.60000000
v 23.00000000 195.07500000 34.60000000
v 23.00000000 176.92500000 34.60000000
v 23.00000000 176.92500000 34.60000000
v 23.00000000 176.92500000 34.60000000
v 23.00000000 176.92500000 35.40000000
v 23.00000000 176.92500000 35.40000000
v 23.00000000 176.92500000 35.40000000
v 23.00000000 195.07500000 35.40000000
v 23.00000000 195.07500000 35.40000000
v 23.00000000 195.07500000 35.40000000
v 30.00000000 195.07500000 34.60000000
v 30.00000000 195.07500000 34.60000000
v 30.00000000 195.07500000 34.60000000
v 30.00000000 195.07500000 35.40000000
v 30.00000000 195.07500000 35.40000000
v 30.00000000 195.07500000 35.40000000
v 30.00000000 176.92500000 34.60000000
v 30.00000000 176.92500000 34.60000000
v 30.00000000 176.92500000 34.60000000
v 30.00000000 176.92500000 35.40000000
v 30.00000000 176.92500000 35.40000000
v 30.00000000 176.92500000 35.40000000
vn -0.10000000 -0.00000000 -0.00000000
vn -0.00000000 0.10000000 0.00000000
vn 0.00000000 0.00000000 -0.10000000
vn -0.10000000 -0.00000000 -0.00000000
vn 0.00000000 0.00000000 -0.10000000
vn 0.00000000 -0.10000000 -0.00000000
vn -0.10000000 -0.00000000 -0.00000000
vn 0.00000000 -0.10000000 -0.00000000
vn -0.00000000 -0.00000000 0.10000000
vn -0.00000000 0.10000000 0.00000000
vn -0.00000000 -0.00000000 0.10000000
vn -0.10000000 -0.00000000 -0.00000000
vn -0.00000000 0.10000000 0.00000000
vn 0.10000000 0.00000000 0.00000000
vn 0.00000000 0.00000000 -0.10000000
vn -0.00000000 -0.00000000 0.10000000
vn 0.10000000 0.00000000 0.00000000
vn -0.00000000 0.10000000 0.00000000
vn 0.10000000 0.00000000 0.00000000
vn 0.00000000 0.00000000 -0.10000000
vn 0.00000000 -0.10000000 -0.00000000
vn -0.00000000 -0.00000000 0.10000000
vn 0.10000000 0.00000000 0.00000000
vn 0.00000000 -0.10000000 -0.00000000
vt -0.00000000 0.00000000
vt 0.70000000 0.00000000
vt -0.35000000 -0.90750000
vt 1.81500000 0.00000000
vt -0.35000000 0.90750000
vt 0.00000000 0.00000000
vt 1.81500000 0.08000000
vt 0.00000000 0.08000000
vt -0.35000000 -0.90750000
vt 0.70000000 0.08000000
vt -0.35000000 0.90750000
vt -0.00000000 0.08000000
vt -0.00000000 0.00000000
vt 1.81500000 0.00000000
vt 0.35000000 -0.90750000
vt 0.35000000 0.90750000
vt 1.81500000 0.08000000
vt -0.00000000 0.08000000
vt 0.00000000 0.00000000
vt 0.35000000 0.90750000
vt 0.70000000 0.00000000
vt 0.35000000 -0.90750000
vt 0.00000000 0.08000000
vt 0.70000000 0.08000000
f 1/1/1 4/4/4 12/12/12
f 12/12/12 4/4/4 7/7/7
f 13/13/13 2/2/2 18/18/18
f 18/18/18 2/2/2 10/10/10
f 19/19/19 14/14/14 23/23/23
f 23/23/23 14/14/14 17/17/17
f 6/6/6 21/21/21 8/8/8
f 8/8/8 21/21/21 24/24/24
f 9/9/9 22/22/22 11/11/11
f 11/11/11 22/22/22 16/16/16
f 20/20/20 5/5/5 15/15/15
f 15/15/15 5/5/5 3/3/3