mtllib material.mtl
usemtl material_0
v -18.00000000 173.25000000 33.00000000
v -18.00000000 173.25000000 33.00000000
v 30.00000000 173.25000000 33.00000000
v 30.00000000 173.25000000 33.00000000
v 30.00000000 173.25000000 34.60000000
v 30.00000000 173.25000000 34.60000000
v -18.00000000 173.25000000 34.60000000
v -18.00000000 173.25000000 34.60000000
v -18.00000000 198.75000000 33.00000000
v -18.00000000 198.75000000 33.00000000
v -18.00000000 198.75000000 34.60000000
v -18.00000000 198.75000000 34.60000000
v 30.00000000 198.75000000 33.00000000
v 30.00000000 198.75000000 33.00000000
v 30.00000000 198.75000000 34.60000000
v 30.00000000 198.75000000 34.60000000
vn 0.00000000 -0.10000000 -0.00000000
vn -0.10000000 -0.00000000 -0.00000000
vn 0.00000000 -0.10000000 -0.00000000
vn 0.10000000 0.00000000 0.00000000
vn 0.00000000 -0.10000000 -0.00000000
vn 0.10000000 0.00000000 0.00000000
vn 0.00000000 -0.10000000 -0.00000000
vn -0.10000000 -0.00000000 -0.00000000
vn -0.10000000 -0.00000000 -0.00000000
vn -0.00000000 0.10000000 0.00000000
vn -0.10000000 -0.00000000 -0.00000000
vn -0.00000000 0.10000000 0.00000000
vn -0.00000000 0.10000000 0.00000000
vn 0.10000000 0.00000000 0.00000000
vn -0.00000000 0.10000000 0.00000000
vn 0.10000000 0.00000000 0.00000000
vt 0.00000000 0.00000000
vt 2.55000000 0.00000000
vt 4.80000000 0.00000000
vt 0.00000000 0.00000000
vt 4.80000000 0.16000000
vt 0.00000000 0.16000000
vt 0.00000000 0.16000000
vt 2.55000000 0.16000000
vt 0.00000000 0.00000000
vt 4.80000000 0.00000000
vt 0.00000000 0.16000000
vt 4.80000000 0.16000000
vt 0.00000000 0.00000000
vt 2.55000000 0.00000000
vt 0.00000000 0.16000000
vt 2.55000000 0.16000000
f 1/1/1 3/3/3 7/7/7
f 7/7/7 3/3/3 5/5/5
f 9/9/9 2/2/2 11/11/11
f 11/11/11 2/2/2 8/8/8
f 13/13/13 10/10/10 15/15/15
f 15/15/15 10/10/10 12/12/12
f 4/4/4 14/14/14 6/6/6
f 6/6/6 14/14/14 16/16/16