mtllib material.mtl
usemtl material_0
v -3.00000000 175.15000000 -2.45000000
v -3.00000000 175.15000000 -2.45000000
v -3.00000000 175.15000000 -2.45000000
v -3.00000000 175.15000000 2.45000000
v -3.00000000 175.15000000 2.45000000
v -3.00000000 175.15000000 2.45000000
v -3.00000000 176.15000000 2.45000000
v -3.00000000 176.15000000 2.45000000
v -3.00000000 176.15000000 2.45000000
v -3.00000000 176.15000000 -2.45000000
v -3.00000000 176.15000000 -2.45000000
v -3.00000000 176.15000000 -2.45000000
v -2.45000000 176.15000000 2.45000000
v -2.45000000 176.15000000 2.45000000
v -2.45000000 176.15000000 2.45000000
v -2.45000000 176.15000000 -2.45000000
v -2.45000000 176.15000000 -2.45000000
v -2.45000000 176.15000000 -2.45000000
v -2.45000000 177.00000000 2.45000000
v -2.45000000 177.00000000 2.45000000
v -2.45000000 177.00000000 2.45000000
v -2.45000000 177.00000000 -2.45000000
v -2.45000000 177.00000000 -2.45000000
v -2.45000000 177.00000000 -2.45000000
v 3.00000000 175.15000000 2.45000000
v 3.00000000 175.15000000 2.45000000
v 3.00000000 175.15000000 2.45000000
v 3.00000000 175.15000000 -2.45000000
v 3.00000000 175.15000000 -2.45000000
v 3.00000000 175.15000000 -2.45000000
v 3.00000000 176.15000000 -2.45000000
v 3.00000000 176.15000000 -2.45000000
v 3.00000000 176.15000000 -2.45000000
v 3.00000000 176.15000000 2.45000000
v 3.00000000 176.15000000 2.45000000
v 3.00000000 176.15000000 2.45000000
v 2.45000000 176.15000000 -2.45000000
v 2.45000000 176.15000000 -2.45000000
v 2.45000000 176.15000000 -2.45000000
v 2.45000000 176.15000000 2.45000000
v 2.45000000 176.15000000 2.45000000
v 2.45000000 176.15000000 2.45000000
v 2.45000000 177.00000000 -2.45000000
v 2.45000000 177.00000000 -2.45000000
v 2.45000000 177.00000000 -2.45000000
v 2.45000000 177.00000000 2.45000000
v 2.45000000 177.00000000 2.45000000
v 2.45000000 177.00000000 2.45000000
v -2.10000000 175.15000000 3.20000000
v -2.10000000 175.15000000 3.20000000
v -2.10000000 175.15000000 3.20000000
v -2.10000000 175.15000000 4.00000000
v -2.10000000 175.15000000 4.00000000
v -2.10000000 175.15000000 4.00000000
v -2.10000000 175.75000000 4.00000000
v -2.10000000 175.75000000 4.00000000
v -2.10000000 175.75000000 4.00000000
v -2.10000000 175.75000000 3.20000000
v -2.10000000 175.75000000 3.20000000
v -2.10000000 175.75000000 3.20000000
v -0.50000000 175.15000000 3.20000000
v -0.50000000 175.15000000 3.20000000
v -0.50000000 175.15000000 3.20000000
v -0.50000000 175.75000000 3.20000000
v -0.50000000 175.75000000 3.20000000
v -0.50000000 175.75000000 3.20000000
v -0.50000000 175.15000000 4.00000000
v -0.50000000 175.15000000 4.00000000
v -0.50000000 175.15000000 4.00000000
v -0.50000000 175.75000000 4.00000000
v -0.50000000 175.75000000 4.00000000
v -0.50000000 175.75000000 4.00000000
v 2.10000000 175.15000000 3.20000000
v 2.10000000 175.15000000 3.20000000
v 2.10000000 175.15000000 3.20000000
v 0.50000000 175.15000000 3.20000000
v 0.50000000 175.15000000 3.20000000
v 0.50000000 175.15000000 3.20000000
v 0.50000000 175.75000000 3.20000000
v 0.50000000 175.75000000 3.20000000
v 0.50000000 175.75000000 3.20000000
v 2.10000000 175.75000000 3.20000000
v 2.10000000 175.75000000 3.20000000
v 2.10000000 175.75000000 3.20000000
v 2.10000000 175.15000000 4.00000000
v 2.10000000 175.15000000 4.00000000
v 2.10000000 175.15000000 4.00000000
v 2.10000000 175.75000000 4.00000000
v 2.10000000 175.75000000 4.00000000
v 2.10000000 175.75000000 4.00000000
v 0.50000000 175.15000000 4.00000000
v 0.50000000 175.15000000 4.00000000
v 0.50000000 175.15000000 4.00000000
v 0.50000000 175.75000000 4.00000000
v 0.50000000 175.75000000 4.00000000
v 0.50000000 175.75000000 4.00000000
vn -0.10000000 0.00000000 -0.00000000
vn -0.00000000 -0.10000000 -0.00000000
vn 0.00000000 0.00000000 -0.10000000
vn -0.00000000 -0.00000000 0.10000000
vn -0.00000000 -0.10000000 -0.00000000
vn -0.10000000 0.00000000 -0.00000000
vn 0.00000000 0.10000000 0.00000000
vn -0.00000000 -0.00000000 0.10000000
vn -0.10000000 0.00000000 -0.00000000
vn 0.00000000 0.00000000 -0.10000000
vn -0.10000000 0.00000000 -0.00000000
vn 0.00000000 0.10000000 0.00000000
vn -0.00000000 -0.00000000 0.10000000
vn 0.00000000 0.10000000 0.00000000
vn -0.10000000 0.00000000 -0.00000000
vn 0.00000000 0.10000000 0.00000000
vn 0.00000000 0.00000000 -0.10000000
vn -0.10000000 0.00000000 -0.00000000
vn 0.00000000 0.10000000 0.00000000
vn -0.00000000 -0.00000000 0.10000000
vn -0.10000000 0.00000000 -0.00000000
vn -0.10000000 0.00000000 -0.00000000
vn 0.00000000 0.10000000 0.00000000
vn 0.00000000 0.00000000 -0.10000000
vn -0.00000000 -0.00000000 0.10000000
vn -0.00000000 -0.10000000 -0.00000000
vn 0.10000000 -0.00000000 0.00000000
vn -0.00000000 -0.10000000 -0.00000000
vn 0.00000000 0.00000000 -0.10000000
vn 0.10000000 -0.00000000 0.00000000
vn 0.10000000 -0.00000000 0.00000000
vn 0.00000000 0.00000000 -0.10000000
vn 0.00000000 0.10000000 0.00000000
vn 0.10000000 -0.00000000 0.00000000
vn 0.00000000 0.10000000 0.00000000
vn -0.00000000 -0.00000000 0.10000000
vn 0.00000000 0.00000000 -0.10000000
vn 0.00000000 0.10000000 0.00000000
vn 0.10000000 -0.00000000 -0.00000000
vn -0.00000000 -0.00000000 0.10000000
vn 0.00000000 0.10000000 0.00000000
vn 0.10000000 -0.00000000 -0.00000000
vn 0.10000000 -0.00000000 -0.00000000
vn 0.00000000 0.00000000 -0.10000000
vn 0.00000000 0.10000000 0.00000000
vn 0.00000000 0.10000000 0.00000000
vn -0.00000000 -0.00000000 0.10000000
vn 0.10000000 -0.00000000 -0.00000000
vn -0.00000000 -0.10000000 -0.00000000
vn -0.10000000 0.00000000 -0.00000000
vn -0.00000000 0.00000000 -0.10000000
vn -0.10000000 0.00000000 -0.00000000
vn -0.00000000 -0.10000000 -0.00000000
vn -0.00000000 -0.00000000 0.10000000
vn -0.00000000 -0.00000000 0.10000000
vn -0.10000000 0.00000000 -0.00000000
vn 0.00000000 0.10000000 0.00000000
vn 0.00000000 0.10000000 0.00000000
vn -0.10000000 0.00000000 -0.00000000
vn -0.00000000 0.00000000 -0.10000000
vn 0.10000000 -0.00000000 -0.00000000
vn -0.00000000 0.00000000 -0.10000000
vn -0.00000000 -0.10000000 -0.00000000
vn 0.10000000 -0.00000000 -0.00000000
vn 0.00000000 0.10000000 0.00000000
vn -0.00000000 0.00000000 -0.10000000
vn -0.00000000 -0.00000000 0.10000000
vn 0.10000000 -0.00000000 -0.00000000
vn -0.00000000 -0.10000000 -0.00000000
vn -0.00000000 -0.00000000 0.10000000
vn 0.00000000 0.10000000 0.00000000
vn 0.10000000 -0.00000000 -0.00000000
vn 0.10000000 -0.00000000 0.00000000
vn -0.00000000 -0.10000000 -0.00000000
vn 0.00000000 -0.00000000 -0.10000000
vn -0.00000000 -0.10000000 -0.00000000
vn 0.00000000 -0.00000000 -0.10000000
vn -0.10000000 0.00000000 -0.00000000
vn 0.00000000 0.10000000 0.00000000
vn 0.00000000 -0.00000000 -0.10000000
vn -0.10000000 0.00000000 -0.00000000
vn 0.10000000 -0.00000000 0.00000000
vn 0.00000000 0.10000000 0.00000000
vn 0.00000000 -0.00000000 -0.10000000
vn -0.00000000 0.00000000 0.10000000
vn 0.10000000 -0.00000000 0.00000000
vn -0.00000000 -0.10000000 -0.00000000
vn -0.00000000 0.00000000 0.10000000
vn 0.10000000 -0.00000000 0.00000000
vn 0.00000000 0.10000000 0.00000000
vn -0.10000000 0.00000000 -0.00000000
vn -0.00000000 -0.10000000 -0.00000000
vn -0.00000000 0.00000000 0.10000000
vn -0.00000000 0.00000000 0.10000000
vn -0.10000000 0.00000000 -0.00000000
vn 0.00000000 0.10000000 0.00000000
vt -0.00000000 0.00000000
vt -0.24500000 0.30000000
vt 0.54500000 0.00000000
vt -0.05500000 0.00000000
vt 0.24500000 0.30000000
vt 0.49000000 0.00000000
vt -0.24500000 0.30000000
vt -0.05500000 0.10000000
vt 0.49000000 0.10000000
vt 0.54500000 0.10000000
vt -0.00000000 0.10000000
vt 0.24500000 0.30000000
vt 0.00000000 0.10000000
vt -0.24500000 0.24500000
vt 0.49000000 0.10000000
vt 0.24500000 0.24500000
vt 0.49000000 0.10000000
vt 0.00000000 0.10000000
vt -0.24500000 0.24500000
vt 0.00000000 0.18500000
vt 0.49000000 0.18500000
vt 0.00000000 0.18500000
vt 0.24500000 0.24500000
vt 0.49000000 0.18500000
vt 0.54500000 0.00000000
vt 0.24500000 -0.30000000
vt 0.00000000 0.00000000
vt -0.24500000 -0.30000000
vt -0.05500000 0.00000000
vt 0.49000000 0.00000000
vt 0.49000000 0.10000000
vt -0.05500000 0.10000000
vt 0.24500000 -0.30000000
vt 0.00000000 0.10000000
vt -0.24500000 -0.30000000
vt 0.54500000 0.10000000
vt 0.00000000 0.10000000
vt 0.24500000 -0.24500000
vt 0.49000000 0.10000000
vt 0.49000000 0.10000000
vt -0.24500000 -0.24500000
vt 0.00000000 0.10000000
vt 0.49000000 0.18500000
vt 0.00000000 0.18500000
vt 0.24500000 -0.24500000
vt -0.24500000 -0.24500000
vt 0.49000000 0.18500000
vt 0.00000000 0.18500000
vt -0.04000000 0.21000000
vt -0.00000000 0.00000000
vt 0.16000000 0.00000000
vt 0.08000000 0.00000000
vt 0.04000000 0.21000000
vt 0.00000000 0.00000000
vt 0.00000000 0.06000000
vt 0.08000000 0.06000000
vt -0.04000000 0.21000000
vt 0.04000000 0.21000000
vt -0.00000000 0.06000000
vt 0.16000000 0.06000000
vt 0.08000000 0.00000000
vt 0.00000000 0.00000000
vt -0.04000000 0.05000000
vt 0.08000000 0.06000000
vt 0.04000000 0.05000000
vt 0.00000000 0.06000000
vt 0.16000000 0.00000000
vt 0.00000000 0.00000000
vt 0.04000000 0.05000000
vt 0.16000000 0.06000000
vt -0.04000000 0.05000000
vt 0.00000000 0.06000000
vt 0.08000000 0.00000000
vt -0.04000000 -0.21000000
vt 0.00000000 0.00000000
vt -0.04000000 -0.05000000
vt 0.16000000 0.00000000
vt 0.00000000 0.00000000
vt 0.04000000 -0.05000000
vt 0.16000000 0.06000000
vt 0.00000000 0.06000000
vt 0.08000000 0.06000000
vt 0.04000000 -0.21000000
vt 0.00000000 0.06000000
vt 0.16000000 0.00000000
vt -0.00000000 0.00000000
vt 0.04000000 -0.21000000
vt 0.16000000 0.06000000
vt -0.00000000 0.06000000
vt -0.04000000 -0.21000000
vt 0.08000000 0.00000000
vt 0.04000000 -0.05000000
vt 0.00000000 0.00000000
vt 0.00000000 0.06000000
vt 0.08000000 0.06000000
vt -0.04000000 -0.05000000
f 1/1/1 6/6/6 11/11/11
f 11/11/11 6/6/6 9/9/9
f 12/12/12 7/7/7 16/16/16
f 16/16/16 7/7/7 14/14/14
f 18/18/18 15/15/15 22/22/22
f 22/22/22 15/15/15 21/21/21
f 27/27/27 30/30/30 34/34/34
f 34/34/34 30/30/30 31/31/31
f 38/38/38 41/41/41 33/33/33
f 33/33/33 41/41/41 35/35/35
f 32/32/32 29/29/29 37/37/37
f 37/37/37 29/29/29 3/3/3
f 37/37/37 3/3/3 17/17/17
f 17/17/17 3/3/3 10/10/10
f 24/24/24 44/44/44 17/17/17
f 17/17/17 44/44/44 37/37/37
f 42/42/42 39/39/39 48/48/48
f 48/48/48 39/39/39 43/43/43
f 8/8/8 4/4/4 13/13/13
f 13/13/13 4/4/4 25/25/25
f 13/13/13 25/25/25 40/40/40
f 40/40/40 25/25/25 36/36/36
f 47/47/47 20/20/20 40/40/40
f 40/40/40 20/20/20 13/13/13
f 23/23/23 19/19/19 45/45/45
f 45/45/45 19/19/19 46/46/46
f 28/28/28 26/26/26 2/2/2
f 2/2/2 26/26/26 5/5/5
f 50/50/50 52/52/52 59/59/59
f 59/59/59 52/52/52 56/56/56
f 62/62/62 51/51/51 66/66/66
f 66/66/66 51/51/51 60/60/60
f 68/68/68 61/61/61 72/72/72
f 72/72/72 61/61/61 64/64/64
f 54/54/54 67/67/67 55/55/55
f 55/55/55 67/67/67 70/70/70
f 71/71/71 65/65/65 57/57/57
f 57/57/57 65/65/65 58/58/58
f 53/53/53 49/49/49 69/69/69
f 69/69/69 49/49/49 63/63/63
f 75/75/75 77/77/77 84/84/84
f 84/84/84 77/77/77 80/80/80
f 86/86/86 73/73/73 89/89/89
f 89/89/89 73/73/73 82/82/82
f 93/93/93 85/85/85 94/94/94
f 94/94/94 85/85/85 88/88/88
f 78/78/78 91/91/91 81/81/81
f 81/81/81 91/91/91 95/95/95
f 79/79/79 96/96/96 83/83/83
f 83/83/83 96/96/96 90/90/90
f 92/92/92 76/76/76 87/87/87
f 87/87/87 76/76/76 74/74/74